<?xml version="1.0" standalone="no"?><!DOCTYPE svg PUBLIC "-//W3C//DTD SVG 1.1//EN" "http://www.w3.org/Graphics/SVG/1.1/DTD/svg11.dtd"><svg t="1738939666110" class="icon" viewBox="0 0 1024 1024" version="1.1" xmlns="http://www.w3.org/2000/svg" p-id="21420" xmlns:xlink="http://www.w3.org/1999/xlink" width="28" height="28"><path d="M996.855897 217.554216L800.073693 20.772012a57.700034 57.700034 0 0 0-81.633005 0L90.614141 648.548386a29.251409 29.251409 0 0 0-7.626439 13.546964L10.988093 956.265177a43.350287 43.350287 0 0 0 42.447156 51.077074 42.698025 42.698025 0 0 0 7.877309-0.752609l294.169827-71.999608a28.548973 28.548973 0 0 0 13.546965-7.62644L996.855897 299.187221a57.750208 57.750208 0 0 0 0-81.633005zM216.149346 638.212553L612.122103 242.189622l163.215836 163.26601-395.922583 395.972757z m-57.549513 57.599687l163.165663 163.215836-216.048998 52.883336zM832.887452 347.855946l-163.115489-163.26601L759.232103 95.330491l163.266011 163.215837z" fill="#ffffff" p-id="21421"></path></svg>