<?xml version="1.0" standalone="no"?><!DOCTYPE svg PUBLIC "-//W3C//DTD SVG 1.1//EN" "http://www.w3.org/Graphics/SVG/1.1/DTD/svg11.dtd"><svg t="1739725362726" class="icon" viewBox="0 0 1024 1024" version="1.1" xmlns="http://www.w3.org/2000/svg" p-id="7164" width="32" height="32" xmlns:xlink="http://www.w3.org/1999/xlink"><path d="M962.048593 12.459258C934.500038-15.20074 861.449561 7.433206 764.650714 66.753983A508.845885 508.845885 0 0 0 512.634926 0C230.072784 0 1.114424 229.281543 1.114424 512.055426a509.024193 509.024193 0 0 0 66.4308 251.581162c-60.468633 98.292175-83.782378 172.245335-55.721188 200.128218 58.295507 58.418093 318.324001-107.207565 580.748506-369.8661s427.938721-523.0325 369.531772-581.439448m-693.171574 674.137216a99.67406 99.67406 0 1 1 99.562618-99.67406 99.584907 99.584907 0 0 1-99.562618 99.67406m174.307019-298.899595a124.581431 124.581431 0 1 1 124.481133-124.581431c-0.122587 68.69308-55.776909 124.581431-124.481133 124.581431m504.83396-144.239866c-64.469414 109.949047-179.678542 254.200058-324.609351 399.242309-133.73085 133.842293-266.781902 242.431743-372.852755 309.074284A508.611856 508.611856 0 0 0 512.634926 1023.999409c282.550998 0.122587 511.520502-229.158956 511.520503-511.821397a510.528665 510.528665 0 0 0-76.0037-268.720999M692.05715 861.014936a74.755545 74.755545 0 1 1 74.666392-74.744402 74.666391 74.666391 0 0 1-74.666392 74.744402" fill="#3acd85" p-id="7165"></path></svg>