<?xml version="1.0" standalone="no"?><!DOCTYPE svg PUBLIC "-//W3C//DTD SVG 1.1//EN" "http://www.w3.org/Graphics/SVG/1.1/DTD/svg11.dtd"><svg t="1738939924358" class="icon" viewBox="0 0 1284 1024" version="1.1" xmlns="http://www.w3.org/2000/svg" p-id="30701" xmlns:xlink="http://www.w3.org/1999/xlink" width="35.109375" height="28"><path d="M0 866.209927V380.045919c0-55.439755 29.852176-106.614914 81.027335-136.46709L469.105622 21.819808c68.233545-38.381369 157.790073-25.587579 213.229828 34.116773l4.264596 4.264596c51.175159 59.704352 46.910562 149.26088 0 204.700635h434.988849c89.556528 0 162.054669 72.498142 162.05467 157.790073 0 42.645966-17.058386 81.027335-46.910562 110.879511-29.852176 29.852176-72.498142 46.910562-115.144108 46.910562l-268.669583-4.264597-21.322983 324.109339c-8.529193 68.233545-63.968948 119.408704-136.46709 119.408703H162.054669c-89.556528 0-162.054669-68.233545-162.054669-153.525476zM618.366501 119.905529c-29.852176-34.116772-68.233545-38.381369-102.350317-21.322983L123.6733 324.606164c-21.322983 8.529193-34.116772 34.116772-34.116772 55.439755v481.899412c0 38.381369 29.852176 68.233545 68.233545 68.233545l533.07457 4.264596c21.322983 0 42.645966-17.058386 46.910562-38.381369l21.322983-324.109338c4.264597-46.910562 42.645966-81.027335 93.821124-81.027335l264.404987 4.264597c17.058386 0 38.381369-8.529193 51.175159-21.322983 12.79379-12.79379 21.322983-29.852176 21.322982-46.910562 0-38.381369-29.852176-68.233545-68.233545-68.233545H400.872077l200.436038-136.46709c34.116772-25.587579 38.381369-72.498142 17.058386-102.350318z m0 0" fill="#ffffff" p-id="30702"></path></svg>