<?xml version="1.0" standalone="no"?><!DOCTYPE svg PUBLIC "-//W3C//DTD SVG 1.1//EN" "http://www.w3.org/Graphics/SVG/1.1/DTD/svg11.dtd"><svg t="1741900287425" class="icon" viewBox="0 0 1024 1024" version="1.1" xmlns="http://www.w3.org/2000/svg" p-id="9683" xmlns:xlink="http://www.w3.org/1999/xlink" width="24" height="24"><path d="M941.056 534.016l-92.6208-396.7488a101.888 101.888 0 0 0-99.6352-79.0528H183.3472A103.2192 103.2192 0 0 0 80.2304 161.28v395.264a103.2192 103.2192 0 0 0 103.1168 103.0656h139.8272c22.2208 44.8512 50.5344 118.3744 73.2672 230.912v0.5632a96 96 0 0 0 76.1344 75.6736c40.96 7.68 82.2784-11.264 107.52-49.408 21.248-31.7952 26.88-87.04 27.8528-128a724.1216 724.1216 0 0 0-8.9088-129.7408h242.2272a102.4 102.4 0 0 0 99.7888-125.5936zM297.216 505.6512a30.72 30.72 0 0 1-61.44 0V214.4256a30.72 30.72 0 0 1 61.44 0z" fill="#059DFF" p-id="9684"></path></svg>