<?xml version="1.0" standalone="no"?><!DOCTYPE svg PUBLIC "-//W3C//DTD SVG 1.1//EN" "http://www.w3.org/Graphics/SVG/1.1/DTD/svg11.dtd"><svg t="1741900335509" class="icon" viewBox="0 0 1024 1024" version="1.1" xmlns="http://www.w3.org/2000/svg" p-id="13283" xmlns:xlink="http://www.w3.org/1999/xlink" width="24" height="24"><path d="M792.7 950.8H127.3c-35.5 0-64.7-29.2-64.7-64.7v-438c0-10.4 4.2-20.9 12.5-27.1 8.3-6.3 18.8-10.4 27.1-8.3 8.3 0 43.8-2.1 102.2-6.3 152.3-12.5 225.3-89.7 225.3-235.7v-4.2c4.2-33.4 33.4-93.9 112.6-93.9 68.8 0 98 58.4 104.3 91.8 4.2 16.7 31.3 118.9-10.4 216.9h254.5c20.9 0 39.6 8.3 54.2 25 12.5 16.7 18.8 37.5 14.6 56.3l-93.9 431.8c-8.2 33.5-37.4 56.4-72.9 56.4zM125.2 477.3v410.9c0 2.1 0 2.1 2.1 2.1h665.4c4.2 0 10.4-4.2 10.4-8.3l91.8-427.6c0-2.1 0-4.2-2.1-4.2s-2.1-2.1-4.2-2.1h-292c-14.6 0-27.1-8.3-33.4-20.9-6.3-12.5-6.3-27.1 0-39.6 54.2-89.7 20.9-202.3 20.9-202.3v-4.2c-2.1-6.3-8.3-41.7-43.8-41.7-39.6 0-48 27.1-50.1 37.5 0 125.2-50.1 275.3-283.7 296.2-25 0.1-58.3 2.2-81.3 4.2z m0 0" fill="#2D99F4" p-id="13284"></path><path d="M231.6 435.6h62.6v458.9h-62.6z" fill="#2D99F4" p-id="13285"></path></svg>